<?xml version="1.0" encoding="UTF-8"?>
<svg id="Layer_2" data-name="Layer 2" xmlns="http://www.w3.org/2000/svg" viewBox="0 0 95.12 100.01">
  <g id="Layer_1-2" data-name="Layer 1">
    <path d="M43.29,99.7c19.02,2.12,38.34-6.66,47.35-25.11,11.42-23.4.32-54.64-25.06-60.41-21.87-4.97-46.05,16.69-40.59,41.15.02.1.54,2.84.9,1.71-3.82-13.71,2.94-27.75,13.88-34.86,23.39-15.19,52.72,5.09,51.3,33.77-1.3,26.39-23.89,44.63-47.76,43.75h-.02" style="fill: #7f6a58;"/>
    <path d="M43.98.11C26.49,1.74,10.27,16.59,5.17,35.7c-7.49,28.05,13.2,52.54,37.79,52.59,15.25.03,30.54-7.49,37.67-23.36.14-.32.44-1.17.81-.71-5.15,17.33-22.87,26.57-37.99,27.24C-5.17,93.63-16.67,24.37,27.9,3.62,32.08,1.67,39.84.12,42.91,0c.74-.03,1.03.07,1.07.1Z" style="fill: #7f6a58;"/>
    <path d="M43.92,80.47c-32.55-13.62-31.57-43.22-15.63-60.96,3.95-4.4,10.46-8.12,15.64-10.18h0C24.78,14.95,7.82,34.07,13.92,56.16c6.75,24.42,29.99,24.31,29.99,24.31" style="fill: #7f6a58;"/>
    <path d="M56.02,43.75c2.76,3.63,2.22,8.31-2.01,10.08-6.96,2.92-11.73-8.13-5.19-11.34,2.05-1.01,5.69-.73,7.2,1.26Z" style="fill: #7f6a58;"/>
  </g>
</svg>