<?xml version="1.0" encoding="UTF-8"?>
<svg id="Layer_2" data-name="Layer 2" xmlns="http://www.w3.org/2000/svg" viewBox="0 0 288.94 303.79">
  <g id="Layer_1-2" data-name="Layer 1">
    <g>
      <path d="M131.48,302.85c57.79,6.43,116.46-20.24,143.82-76.29,34.7-71.07.97-165.97-76.12-183.49-66.43-15.1-139.89,50.71-123.28,125,.07.31,1.64,8.62,2.72,5.21-11.6-41.65,8.95-84.31,42.17-105.89,71.05-46.15,160.14,15.46,155.83,102.58-3.96,80.16-72.58,135.56-145.08,132.88h-.05" style="fill: #7f6a58;"/>
      <path d="M133.61.32C80.47,5.3,31.19,50.39,15.69,108.46c-22.74,85.2,40.08,159.6,114.78,159.76,46.31.09,92.76-22.74,114.43-70.96.44-.97,1.34-3.54,2.46-2.16-15.63,52.64-69.46,80.71-115.39,82.75C-15.71,284.42-50.63,74.03,84.74,11,97.45,5.08,121.01.35,130.35.01c2.25-.08,3.13.22,3.25.31Z" style="fill: #7f6a58;"/>
      <path d="M133.4,244.43C34.54,203.04,37.51,113.14,85.91,59.27c12.01-13.37,31.76-24.67,47.49-30.92h0C75.27,45.41,23.75,103.49,42.29,170.59c20.51,74.17,91.11,73.84,91.11,73.84" style="fill: #7f6a58;"/>
      <text transform="translate(110.82 210.25) scale(1.5 1)" style="fill: #7f6a58; font-family: ApparatExtraCond-Hairline, &apos;ApparatExtraCond Hairline&apos;; font-size: 22.23px; font-weight: 100;"><tspan x="0" y="0">STUDIO</tspan></text>
      <text transform="translate(92.65 183.48) scale(1.57 1)" style="fill: #7f6a58; font-family: ApparatExtraCond-Thin, ApparatExtraCond; font-size: 43px; font-weight: 200;"><tspan x="0" y="0">B̂ān TA</tspan></text>
      <path d="M252.47,158.61c7.29,11.49,3.84,24.99-10.05,28.78-22.87,6.24-33.69-27.57-12.02-34.8,6.79-2.27,18.08-.27,22.07,6.02" style="fill: none; stroke: #7f6a58; stroke-miterlimit: 10;"/>
      <path d="M252.17,159.49c7.07,11.15,3.73,24.25-9.75,27.93-22.2,6.06-32.7-26.75-11.66-33.77,6.59-2.2,17.54-.26,21.42,5.84" style="fill: #7f6a58;"/>
    </g>
  </g>
</svg>