<?xml version="1.0" encoding="UTF-8"?>
<svg id="Layer_2" data-name="Layer 2" xmlns="http://www.w3.org/2000/svg" viewBox="0 0 318.69 118.86">
  <g id="Layer_1-2" data-name="Layer 1">
    <path d="M266.86,99.7c19.02,2.12,38.34-6.66,47.35-25.11,11.42-23.4.32-54.64-25.06-60.41-21.87-4.97-46.05,16.69-40.59,41.15.02.1.54,2.84.9,1.71-3.82-13.71,2.94-27.75,13.88-34.86,23.39-15.19,52.72,5.09,51.3,33.77-1.3,26.39-23.89,44.63-47.76,43.75h-.02" style="fill: #7f6a58;"/>
    <path d="M267.56.11c-17.49,1.64-33.72,16.49-38.82,35.6-7.49,28.05,13.2,52.54,37.79,52.59,15.25.03,30.54-7.49,37.67-23.36.14-.32.44-1.17.81-.71-5.15,17.33-22.87,26.57-37.99,27.24-48.62,2.16-60.12-67.1-15.55-87.85,4.19-1.95,11.94-3.51,15.02-3.62.74-.03,1.03.07,1.07.1Z" style="fill: #7f6a58;"/>
    <path d="M267.49,80.47c-32.55-13.62-31.57-43.22-15.63-60.96,3.95-4.4,10.46-8.12,15.64-10.18h0c-19.14,5.62-36.1,24.74-30,46.83,6.75,24.42,29.99,24.31,29.99,24.31" style="fill: #7f6a58;"/>
    <path d="M279.59,43.75c2.76,3.63,2.22,8.31-2.01,10.08-6.96,2.92-11.73-8.13-5.19-11.34,2.05-1.01,5.69-.73,7.2,1.26Z" style="fill: #7f6a58;"/>
    <path d="M278.48,45.27c2.07,2.72,1.67,6.23-1.47,7.55-5.18,2.17-8.76-6.13-3.9-8.51,1.52-.75,4.23-.53,5.37.96Z" style="fill: #fff;"/>
    <g>
      <path d="M0,84.79V24.96h10.8c13.07,0,20.1,5.19,20.1,14.55,0,7.23-4.52,12.34-12.06,14.04v.08c9.55,1.36,14.7,6.81,14.7,15.4,0,10.47-7.41,15.74-21.98,15.74H0ZM3.14,52.88h9.17c9.3,0,15.45-5.02,15.45-13.19s-6.16-12.68-17.21-12.68H3.14v25.87ZM3.14,82.75h8.17c12.69,0,18.84-4.51,18.84-13.7s-6.16-14.13-17.46-14.13H3.14v27.83Z" style="fill: #7f6a58;"/>
      <path d="M1.63,19.77l-.25-.34,10.68-11.06h3.77l10.68,11.06-.25.34h-2.76l-9.55-10.13-9.67,10.13H1.63Z" style="fill: #7f6a58;"/>
      <path d="M42.46,76.96c0-8.6,6.53-13.28,23.12-15.15v-5.96c0-8.17-2.01-10.72-7.91-10.72-3.77,0-8.79,1.53-12.81,3.83h-.25l-.38-2.04c4.02-2.21,9.67-3.66,13.94-3.66,7.41,0,10.3,3.4,10.3,11.66v29.87h-2.64l-.13-5.7c-4.02,4.68-8.54,6.98-13.44,6.98-6.16,0-9.8-3.49-9.8-9.11ZM65.58,76.7v-13.19c-14.32,1.45-20.1,5.62-20.1,13.19,0,4.85,2.64,7.57,7.16,7.57s8.79-2.47,12.94-7.57ZM46.48,33.22v-1.87h21.11v1.87h-21.11Z" style="fill: #7f6a58;"/>
      <path d="M111.68,54.41v30.38h-2.89v-29.44c0-7.4-2.64-10.21-8.17-10.21-4.65,0-9.92,2.64-14.95,8.51v31.15h-2.89v-40.25h2.76v6.55c5.65-5.96,10.93-7.83,15.95-7.83,6.53,0,10.17,3.49,10.17,11.15Z" style="fill: #7f6a58;"/>
      <path d="M179.14,24.96v2.04h-19.22v57.78h-3.14V27h-19.22v-2.04h41.58Z" style="fill: #7f6a58;"/>
      <path d="M200.12,24.71l22.36,59.91-.25.17h-2.89l-6.66-17.87h-27.26l-6.66,17.87h-3.02l-.25-.17,22.36-59.91h2.26ZM186.17,64.87h25.75l-7.66-20.51c-1.88-5.02-3.52-9.7-5.28-14.72h-.13c-1.76,5.02-3.27,9.79-5.15,14.64l-7.54,20.59Z" style="fill: #7f6a58;"/>
    </g>
    <g>
      <path d="M159.68,118.52l-8.12-19.96.09-.06h1.17l6.06,15.2c.42,1.04.89,2.13,1.27,3.25h.05c.42-1.09.85-2.32,1.22-3.22l6.1-15.23h1.17l.09.06-8.08,19.96h-1.03Z" style="fill: #7f6a58; stroke: #7f6a58; stroke-miterlimit: 10; stroke-width: .5px;"/>
      <path d="M172.45,98.5h1.17v19.68h-1.17v-19.68Z" style="fill: #7f6a58; stroke: #7f6a58; stroke-miterlimit: 10; stroke-width: .5px;"/>
      <path d="M180.1,98.5h1.17v18.98h9.81l-.19.7h-10.8v-19.68Z" style="fill: #7f6a58; stroke: #7f6a58; stroke-miterlimit: 10; stroke-width: .5px;"/>
      <path d="M194.75,98.5h1.17v18.98h9.81l-.19.7h-10.8v-19.68Z" style="fill: #7f6a58; stroke: #7f6a58; stroke-miterlimit: 10; stroke-width: .5px;"/>
      <path d="M216.59,98.42l8.36,19.71-.09.06h-1.08l-2.49-5.88h-10.19l-2.49,5.88h-1.13l-.09-.06,8.36-19.71h.85ZM211.37,111.64h9.62l-2.86-6.75c-.7-1.65-1.31-3.19-1.97-4.84h-.05c-.66,1.65-1.22,3.22-1.93,4.82l-2.82,6.78Z" style="fill: #7f6a58; stroke: #7f6a58; stroke-miterlimit: 10; stroke-width: .5px;"/>
      <path d="M226.73,108.36c0-6.05,3.94-10.28,10.24-10.28,2.25,0,4.55.59,6.76,1.82l-.14.73h-.09c-2.35-1.23-4.46-1.85-6.48-1.85-5.54,0-9.01,3.98-9.01,9.58s3.1,9.55,8.73,9.55c2.44,0,4.6-.78,6.24-1.76v-6.86h-6.1v-.7h7.23v7.87c-2.44,1.48-4.98,2.16-7.37,2.16-6.53,0-10-4.34-10-10.25Z" style="fill: #7f6a58; stroke: #7f6a58; stroke-miterlimit: 10; stroke-width: .5px;"/>
      <path d="M251.1,108.44v9.04h9.44l-.19.7h-10.42v-19.68h10.42l.19.67h-9.44v8.6h8.78v.67h-8.78Z" style="fill: #7f6a58; stroke: #7f6a58; stroke-miterlimit: 10; stroke-width: .5px;"/>
    </g>
  </g>
</svg>