<svg id="Layer_1" enable-background="new 0 0 512.363 512.363" height="512" viewBox="0 0 512.363 512.363" width="512" xmlns="http://www.w3.org/2000/svg"><path d="m481.913 192.185c-.358.416-28.79 32.812-76.238 46.741v-238.745h-40v244.965c-40.699 0-83.483-15.98-121.815-31.468-34.044-13.755-66.316-26.793-98.185-28.342v-185.155h-40v188.562c-56.405 11.455-103.337 46.745-105.675 48.525l24.229 31.827c.461-.352 37.526-28.244 81.445-39.387v132.473c0 82.71 67.29 150 150 150s150-67.29 150-150v-81.855c65.904-15.025 104.755-59.925 106.688-62.203zm-116.238 169.996c0 60.654-49.346 110-110 110s-110-49.346-110-110v-136.767c24.729 1.733 53.196 13.228 83.2 25.351 39.926 16.132 88.326 34.416 136.8 34.416z"/></svg>