<?xml version="1.0" encoding="UTF-8"?>
<svg id="Layer_2" data-name="Layer 2" xmlns="http://www.w3.org/2000/svg" viewBox="0 0 318.69 126.91">
  <g id="Layer_1-2" data-name="Layer 1">
    <text transform="translate(155.08 119.74)scale(1.4 1.3) " style="fill: #7f6a58; font-family: ApparatExtraCond-Thin, ApparatExtraCond; font-size: 28px; font-weight: 200;"><tspan x="0" y="0">VILLAGE</tspan></text>
    <g>
      <path d="M266.86,99.7c19.02,2.12,38.34-6.66,47.35-25.11,11.42-23.4.32-54.64-25.06-60.41-21.87-4.97-46.05,16.69-40.59,41.15.02.1.54,2.84.9,1.71-3.82-13.71,2.94-27.75,13.88-34.86,23.39-15.19,52.72,5.09,51.3,33.77-1.3,26.39-23.89,44.63-47.76,43.75h-.02" style="fill: #7f6a58;"/>
      <path d="M267.56.11c-17.49,1.64-33.72,16.49-38.82,35.6-7.49,28.05,13.2,52.54,37.79,52.59,15.25.03,30.54-7.49,37.67-23.36.14-.32.44-1.17.81-.71-5.15,17.33-22.87,26.57-37.99,27.24-48.62,2.16-60.12-67.1-15.55-87.85,4.19-1.95,11.94-3.51,15.02-3.62.74-.03,1.03.07,1.07.1Z" style="fill: #7f6a58;"/>
      <path d="M267.49,80.47c-32.55-13.62-31.57-43.22-15.63-60.96,3.95-4.4,10.46-8.12,15.64-10.18h0c-19.14,5.62-36.1,24.74-30,46.83,6.75,24.42,29.99,24.31,29.99,24.31" style="fill: #7f6a58;"/>
    </g>
    <g>
      <path d="M0,84.79V24.96h10.8c13.07,0,20.1,5.19,20.1,14.55,0,7.23-4.52,12.34-12.06,14.04v.08c9.55,1.36,14.7,6.81,14.7,15.4,0,10.47-7.41,15.74-21.98,15.74H0ZM3.14,52.88h9.17c9.3,0,15.45-5.02,15.45-13.19s-6.16-12.68-17.21-12.68H3.14v25.87ZM3.14,82.75h8.17c12.69,0,18.84-4.51,18.84-13.7s-6.16-14.13-17.46-14.13H3.14v27.83Z" style="fill: #7f6a58;"/>
      <path d="M1.63,19.77l-.25-.34,10.68-11.06h3.77l10.68,11.06-.25.34h-2.76l-9.55-10.13-9.67,10.13H1.63Z" style="fill: #7f6a58;"/>
      <path d="M42.46,76.96c0-8.6,6.53-13.28,23.12-15.15v-5.96c0-8.17-2.01-10.72-7.91-10.72-3.77,0-8.79,1.53-12.81,3.83h-.25l-.38-2.04c4.02-2.21,9.67-3.66,13.94-3.66,7.41,0,10.3,3.4,10.3,11.66v29.87h-2.64l-.13-5.7c-4.02,4.68-8.54,6.98-13.44,6.98-6.16,0-9.8-3.49-9.8-9.11ZM65.58,76.7v-13.19c-14.32,1.45-20.1,5.62-20.1,13.19,0,4.85,2.64,7.57,7.16,7.57s8.79-2.47,12.94-7.57ZM46.48,33.22v-1.87h21.11v1.87h-21.11Z" style="fill: #7f6a58;"/>
      <path d="M111.68,54.41v30.38h-2.89v-29.44c0-7.4-2.64-10.21-8.17-10.21-4.65,0-9.92,2.64-14.95,8.51v31.15h-2.89v-40.25h2.76v6.55c5.65-5.96,10.93-7.83,15.95-7.83,6.53,0,10.17,3.49,10.17,11.15Z" style="fill: #7f6a58;"/>
      <path d="M179.14,24.96v2.04h-19.22v57.78h-3.14V27h-19.22v-2.04h41.58Z" style="fill: #7f6a58;"/>
      <path d="M200.12,24.71l22.36,59.91-.25.17h-2.89l-6.66-17.87h-27.26l-6.66,17.87h-3.02l-.25-.17,22.36-59.91h2.26ZM186.17,64.87h25.75l-7.66-20.51c-1.88-5.02-3.52-9.7-5.28-14.72h-.13c-1.76,5.02-3.27,9.79-5.15,14.64l-7.54,20.59Z" style="fill: #7f6a58;"/>
    </g>
    <path d="M277.68,59.16c5.4.08,8.11-6.83,4.14-10.43-3.59-3.55-10.08-.93-10.18,4.14-.21,3.3,2.69,6.36,6.04,6.29h0ZM277.68,59.16c-5.62.09-8.71-6.97-4.75-11.04,2.43-2.68,7.07-2.68,9.5,0,3.95,4.07.87,11.13-4.75,11.04h0Z" style="fill: #7f6a58;"/>
  </g>
</svg>